<?xml version="1.0" encoding="UTF-8"?>
<svg version="1.1" xmlns="http://www.w3.org/2000/svg" width="200" height="200">
<path d="M0 0 C66 0 132 0 200 0 C200 66 200 132 200 200 C134 200 68 200 0 200 C0 134 0 68 0 0 Z " fill="#FEFEFE" transform="translate(0,0)"/>
<path d="M0 0 C2 3 2 3 1.875 6.4375 C0.91941181 10.32810905 0.21280668 11.67963962 -3 14 C-5.75 14.75 -5.75 14.75 -8 15 C-7.37351562 15.03738281 -6.74703125 15.07476562 -6.1015625 15.11328125 C-5.28429687 15.17902344 -4.46703125 15.24476562 -3.625 15.3125 C-2.40683594 15.39951172 -2.40683594 15.39951172 -1.1640625 15.48828125 C1 16 1 16 3 19 C3.1953125 21.69921875 3.1953125 21.69921875 3.125 24.6875 C3.10695312 25.68136719 3.08890625 26.67523438 3.0703125 27.69921875 C3.04710937 28.45847656 3.02390625 29.21773437 3 30 C3.99 29.67 4.98 29.34 6 29 C7.17469444 26.65061112 7.20034889 25.04926795 7.31640625 22.4296875 C7.37924805 21.08583984 7.37924805 21.08583984 7.44335938 19.71484375 C7.48267578 18.77769531 7.52199219 17.84054688 7.5625 16.875 C7.62727539 15.45767578 7.62727539 15.45767578 7.69335938 14.01171875 C7.79959072 11.67462908 7.90163176 9.3374317 8 7 C8.99 7 9.98 7 11 7 C11 16 11 25 11 34 C11.33 34.99 11.66 35.98 12 37 C10 39 10 39 8.15234375 39.0546875 C7.05599609 38.96574219 7.05599609 38.96574219 5.9375 38.875 C1.20762109 38.73028551 -1.82811081 40.10988248 -6.00390625 42.1796875 C-8.66821275 43.27460798 -10.2838807 42.80749493 -13 42 C-16.22111592 42.38333662 -16.22111592 42.38333662 -19 43 C-19 41.68 -19 40.36 -19 39 C-15.535 38.505 -15.535 38.505 -12 38 C-12.28617188 36.66195312 -12.28617188 36.66195312 -12.578125 35.296875 C-12.79984375 34.12640625 -13.0215625 32.9559375 -13.25 31.75 C-13.48203125 30.58984375 -13.7140625 29.4296875 -13.953125 28.234375 C-14 25 -14 25 -12.046875 22.578125 C-11.37140625 22.05734375 -10.6959375 21.5365625 -10 21 C-14.81209901 18.70954986 -14.81209901 18.70954986 -20 18 C-20 14.37 -20 10.74 -20 7 C-19.01 6.67 -18.02 6.34 -17 6 C-16.67 6.66 -16.34 7.32 -16 8 C-16 7.01 -16 6.02 -16 5 C-17.32 5 -18.64 5 -20 5 C-20.33 9.62 -20.66 14.24 -21 19 C-22.32 19 -23.64 19 -25 19 C-24.67 19.66 -24.34 20.32 -24 21 C-23.071875 20.938125 -22.14375 20.87625 -21.1875 20.8125 C-18 21 -18 21 -16.3125 22.1875 C-14.54687369 24.62574585 -14.69651085 26.21044507 -14.8125 29.1875 C-14.83957031 30.08855469 -14.86664063 30.98960938 -14.89453125 31.91796875 C-14.94673828 32.94857422 -14.94673828 32.94857422 -15 34 C-15.99 34 -16.98 34 -18 34 C-18 32.35 -18 30.7 -18 29 C-19.32 29.33 -20.64 29.66 -22 30 C-22.0825 30.70125 -22.165 31.4025 -22.25 32.125 C-23.18630251 35.71415964 -24.70735849 38.10048279 -27 41 C-27.99 41 -28.98 41 -30 41 C-30.33 36.71 -30.66 32.42 -31 28 C-32.32 27.67 -33.64 27.34 -35 27 C-35 30.63 -35 34.26 -35 38 C-35.99 38 -36.98 38 -38 38 C-38.2493357 36.39884424 -38.47378648 34.79379841 -38.6875 33.1875 C-38.87892578 31.84751953 -38.87892578 31.84751953 -39.07421875 30.48046875 C-39 28 -39 28 -37.83203125 26.23828125 C-35.59009917 24.72294549 -33.6612758 24.35963186 -31 24 C-31.02320312 23.23816406 -31.04640625 22.47632812 -31.0703125 21.69140625 C-31.18564838 15.09254606 -30.70064133 9.37740498 -29 3 C-28.01 3 -27.02 3 -26 3 C-26 7.62 -26 12.24 -26 17 C-25.34 17 -24.68 17 -24 17 C-24.03480469 16.16855469 -24.06960937 15.33710937 -24.10546875 14.48046875 C-24.13253906 13.39378906 -24.15960938 12.30710937 -24.1875 11.1875 C-24.23970703 9.56908203 -24.23970703 9.56908203 -24.29296875 7.91796875 C-24 5 -24 5 -22.796875 3.1171875 C-20.40139436 1.62782345 -18.85833296 1.76512534 -16.0625 1.9375 C-10.18645203 2.28314988 -6.02892603 -0.55823389 0 0 Z " fill="#EDFAFC" transform="translate(114,81)"/>
<path d="M0 0 C2.13586678 3.20380017 2.23132175 4.01939967 2.125 7.6875 C2.10695313 8.49574219 2.08890625 9.30398437 2.0703125 10.13671875 C2.04710938 10.75160156 2.02390625 11.36648437 2 12 C1.01 12 0.02 12 -1 12 C-1.33 9.03 -1.66 6.06 -2 3 C-3.32 3 -4.64 3 -6 3 C-6.33 7.62 -6.66 12.24 -7 17 C-8.32 17 -9.64 17 -11 17 C-10.67 17.66 -10.34 18.32 -10 19 C-9.071875 18.938125 -8.14375 18.87625 -7.1875 18.8125 C-4 19 -4 19 -2.3125 20.1875 C-0.54687369 22.62574585 -0.69651085 24.21044507 -0.8125 27.1875 C-0.83957031 28.08855469 -0.86664063 28.98960938 -0.89453125 29.91796875 C-0.92933594 30.60503906 -0.96414062 31.29210937 -1 32 C-1.99 32 -2.98 32 -4 32 C-4 30.35 -4 28.7 -4 27 C-5.32 27.33 -6.64 27.66 -8 28 C-8.0825 28.70125 -8.165 29.4025 -8.25 30.125 C-9.18630251 33.71415964 -10.70735849 36.10048279 -13 39 C-13.99 39 -14.98 39 -16 39 C-16.33 34.71 -16.66 30.42 -17 26 C-18.32 25.67 -19.64 25.34 -21 25 C-21 28.63 -21 32.26 -21 36 C-21.99 36 -22.98 36 -24 36 C-24.2493357 34.39884424 -24.47378648 32.79379841 -24.6875 31.1875 C-24.81511719 30.29417969 -24.94273438 29.40085937 -25.07421875 28.48046875 C-25 26 -25 26 -23.83203125 24.23828125 C-21.59009917 22.72294549 -19.6612758 22.35963186 -17 22 C-17.02320312 21.23816406 -17.04640625 20.47632812 -17.0703125 19.69140625 C-17.18564838 13.09254606 -16.70064133 7.37740498 -15 1 C-14.01 1 -13.02 1 -12 1 C-12 5.62 -12 10.24 -12 15 C-11.34 15 -10.68 15 -10 15 C-10.03480469 14.16855469 -10.06960937 13.33710937 -10.10546875 12.48046875 C-10.13253906 11.39378906 -10.15960938 10.30710937 -10.1875 9.1875 C-10.23970703 7.56908203 -10.23970703 7.56908203 -10.29296875 5.91796875 C-10 3 -10 3 -8.7109375 1.13671875 C-5.84962031 -0.76429336 -3.31174244 -0.36128099 0 0 Z " fill="#D9ECF4" transform="translate(100,83)"/>
<path d="M0 0 C1.175625 0.0825 2.35125 0.165 3.5625 0.25 C5.5625 3.25 5.5625 3.25 5.4375 6.6875 C4.48191181 10.57810905 3.77530668 11.92963962 0.5625 14.25 C-2.1875 15 -2.1875 15 -4.4375 15.25 C-2.7875 15.58 -1.1375 15.91 0.5625 16.25 C0.5625 16.58 0.5625 16.91 0.5625 17.25 C-0.87489513 17.27712066 -2.31243863 17.29645067 -3.75 17.3125 C-4.95076172 17.32990234 -4.95076172 17.32990234 -6.17578125 17.34765625 C-8.4375 17.25 -8.4375 17.25 -11.4375 16.25 C-11.7675 17.24 -12.0975 18.23 -12.4375 19.25 C-13.0975 18.59 -13.7575 17.93 -14.4375 17.25 C-15.0975 17.58 -15.7575 17.91 -16.4375 18.25 C-16.4375 14.62 -16.4375 10.99 -16.4375 7.25 C-15.4475 6.92 -14.4575 6.59 -13.4375 6.25 C-12.08310332 8.95879335 -12.37248549 11.25933268 -12.4375 14.25 C-11.1175 14.25 -9.7975 14.25 -8.4375 14.25 C-8.57918137 12.81208484 -8.72601043 11.3746763 -8.875 9.9375 C-8.95621094 9.13699219 -9.03742188 8.33648437 -9.12109375 7.51171875 C-9.39015693 5.08912821 -9.39015693 5.08912821 -10.4375 2.25 C-9.468125 2.105625 -8.49875 1.96125 -7.5 1.8125 C-3.95461746 1.16130729 -3.70489516 0.26944692 0 0 Z " fill="#E2F8FB" transform="translate(110.4375,80.75)"/>
<path d="M0 0 C0.99 0 1.98 0 3 0 C3 8.25 3 16.5 3 25 C-0.3 25 -3.6 25 -7 25 C-8 24 -8 24 -8.09765625 21.49609375 C-8.08605469 20.48675781 -8.07445313 19.47742188 -8.0625 18.4375 C-8.05347656 17.42558594 -8.04445313 16.41367188 -8.03515625 15.37109375 C-8.02355469 14.58863281 -8.01195313 13.80617188 -8 13 C-7.34 13 -6.68 13 -6 13 C-5.67 15.97 -5.34 18.94 -5 22 C-4.01 22 -3.02 22 -2 22 C-0.82530556 19.65061112 -0.79965111 18.04926795 -0.68359375 15.4296875 C-0.64169922 14.53378906 -0.59980469 13.63789062 -0.55664062 12.71484375 C-0.49766602 11.30912109 -0.49766602 11.30912109 -0.4375 9.875 C-0.37272461 8.45767578 -0.37272461 8.45767578 -0.30664062 7.01171875 C-0.20040928 4.67462908 -0.09836824 2.3374317 0 0 Z " fill="#62AFC6" transform="translate(122,88)"/>
<path d="M0 0 C1.67542976 0.28604898 3.34385343 0.61781233 5 1 C5 3.97 5 6.94 5 10 C4.67 10 4.34 10 4 10 C3.67 7.36 3.34 4.72 3 2 C2.01 2.495 2.01 2.495 1 3 C1 6.3 1 9.6 1 13 C1.66 12.67 2.32 12.34 3 12 C3.33 12.474375 3.66 12.94875 4 13.4375 C7.09813267 15.85791615 10.12026792 15.68198917 14 16 C13.401875 16.2475 12.80375 16.495 12.1875 16.75 C9.61561243 18.21965004 8.46805623 19.43090159 7 22 C6.74875174 24.66761764 6.74875174 24.66761764 7 27 C6.34 27 5.68 27 5 27 C4.87625 25.88625 4.7525 24.7725 4.625 23.625 C4.3534187 19.96896323 4.3534187 19.96896323 2 18 C-1.58343976 17.83322718 -1.58343976 17.83322718 -5 18 C-5 17.01 -5 16.02 -5 15 C-3.68 15 -2.36 15 -1 15 C-1.01160156 14.00097656 -1.02320312 13.00195312 -1.03515625 11.97265625 C-1.04869141 10.03712891 -1.04869141 10.03712891 -1.0625 8.0625 C-1.07410156 6.77472656 -1.08570312 5.48695312 -1.09765625 4.16015625 C-1 1 -1 1 0 0 Z " fill="#F3FDFE" transform="translate(94,85)"/>
<path d="M0 0 C3 0.25 3 0.25 5 2.25 C5.1953125 4.6328125 5.1953125 4.6328125 5.125 7.375 C5.10695313 8.28507812 5.08890625 9.19515625 5.0703125 10.1328125 C5.04710938 10.83148438 5.02390625 11.53015625 5 12.25 C4.01 12.25 3.02 12.25 2 12.25 C2 10.6 2 8.95 2 7.25 C0.68 7.58 -0.64 7.91 -2 8.25 C-2.33 9.9 -2.66 11.55 -3 13.25 C-3.99 12.92 -4.98 12.59 -6 12.25 C-5.835 11.3425 -5.67 10.435 -5.5 9.5 C-4.89862854 6.13912497 -4.89862854 6.13912497 -5 2.25 C-3 0.25 -3 0.25 0 0 Z " fill="#5C89AE" transform="translate(94,102.75)"/>
<path d="M0 0 C1.175625 0.0825 2.35125 0.165 3.5625 0.25 C5.5625 3.25 5.5625 3.25 5.375 6.75 C4.5625 10.25 4.5625 10.25 3.375 12.1875 C0.61954321 13.80276777 -1.31423586 13.70547602 -4.4375 13.25 C-6.375 11.4375 -6.375 11.4375 -7.4375 9.25 C-7.1075 8.26 -6.7775 7.27 -6.4375 6.25 C-4.4575 6.25 -2.4775 6.25 -0.4375 6.25 C-0.4375 6.91 -0.4375 7.57 -0.4375 8.25 C-1.4275 8.25 -2.4175 8.25 -3.4375 8.25 C-3.4375 8.91 -3.4375 9.57 -3.4375 10.25 C-1.7875 10.25 -0.1375 10.25 1.5625 10.25 C1.5625 7.94 1.5625 5.63 1.5625 3.25 C-0.0875 3.25 -1.7375 3.25 -3.4375 3.25 C-3.4375 3.91 -3.4375 4.57 -3.4375 5.25 C-4.4275 5.25 -5.4175 5.25 -6.4375 5.25 C-4.03932371 0.293769 -4.03932371 0.293769 0 0 Z " fill="#60ADC8" transform="translate(110.4375,80.75)"/>
<path d="M0 0 C1 1 1 1 1.09765625 3.50390625 C1.08605469 4.51324219 1.07445313 5.52257812 1.0625 6.5625 C1.05347656 7.57441406 1.04445313 8.58632812 1.03515625 9.62890625 C1.02355469 10.41136719 1.01195313 11.19382812 1 12 C0.01 12 -0.98 12 -2 12 C-2 8.7 -2 5.4 -2 2 C-3.65 2 -5.3 2 -7 2 C-7 5.63 -7 9.26 -7 13 C-7.99 13 -8.98 13 -10 13 C-11.57488507 4.03000242 -11.57488507 4.03000242 -9.5 0.3125 C-6.00598837 -1.52185611 -3.75739694 -0.92162566 0 0 Z " fill="#629CB9" transform="translate(111,103)"/>
<path d="M0 0 C2.62561109 -0.08074203 5.24875676 -0.1403623 7.875 -0.1875 C8.99455078 -0.22520508 8.99455078 -0.22520508 10.13671875 -0.26367188 C12.3046875 -0.29296875 12.3046875 -0.29296875 16 0 C18.20914 3.31371 18.22481553 4.3446021 18.125 8.1875 C18.10695313 9.08855469 18.08890625 9.98960938 18.0703125 10.91796875 C18.04710938 11.60503906 18.02390625 12.29210937 18 13 C17.67 13 17.34 13 17 13 C17 10.03 17 7.06 17 4 C16.34 4 15.68 4 15 4 C15 7.3 15 10.6 15 14 C14.67 14 14.34 14 14 14 C14 11.69 14 9.38 14 7 C9.66579301 4.96834048 5.71403788 4.47939368 1 4 C0.67 2.68 0.34 1.36 0 0 Z " fill="#D5F0F7" transform="translate(99,97)"/>
<path d="M0 0 C1 1 1 1 1.09765625 4.37890625 C1.09098369 5.77347077 1.07902532 7.16801743 1.0625 8.5625 C1.05798828 9.27341797 1.05347656 9.98433594 1.04882812 10.71679688 C1.03700864 12.47790013 1.01907263 14.23896036 1 16 C0.34 16 -0.32 16 -1 16 C-1.33 11.71 -1.66 7.42 -2 3 C-3.32 2.67 -4.64 2.34 -6 2 C-6 5.63 -6 9.26 -6 13 C-6.99 13 -7.98 13 -9 13 C-9.2493357 11.39884424 -9.47378648 9.79379841 -9.6875 8.1875 C-9.81511719 7.29417969 -9.94273438 6.40085937 -10.07421875 5.48046875 C-10 3 -10 3 -8.74609375 1.19140625 C-5.93645961 -0.72568192 -3.28947482 -0.2436648 0 0 Z " fill="#4F719E" transform="translate(85,106)"/>
<path d="M0 0 C2.13586678 3.20380017 2.23132175 4.01939967 2.125 7.6875 C2.10695313 8.49574219 2.08890625 9.30398437 2.0703125 10.13671875 C2.03550781 11.05904297 2.03550781 11.05904297 2 12 C1.01 12 0.02 12 -1 12 C-1.33 9.03 -1.66 6.06 -2 3 C-3.32 3 -4.64 3 -6 3 C-6.33 7.62 -6.66 12.24 -7 17 C-7.66 17 -8.32 17 -9 17 C-9.24875561 14.73122896 -9.47339246 12.45980265 -9.6875 10.1875 C-9.81511719 8.92292969 -9.94273438 7.65835938 -10.07421875 6.35546875 C-10 3 -10 3 -8.7421875 1.07421875 C-5.83689865 -0.71715891 -3.3024996 -0.36027268 0 0 Z " fill="#5A97B4" transform="translate(100,83)"/>
<path d="M0 0 C0.33 0 0.66 0 1 0 C1.0580476 3.27075883 1.09361165 6.54138524 1.125 9.8125 C1.14175781 10.74126953 1.15851563 11.67003906 1.17578125 12.62695312 C1.18222656 13.51962891 1.18867187 14.41230469 1.1953125 15.33203125 C1.20578613 16.15421143 1.21625977 16.9763916 1.22705078 17.82348633 C1 20 1 20 -1 23 C-1.99 23 -2.98 23 -4 23 C-4 19.37 -4 15.74 -4 12 C-3.01 12.495 -3.01 12.495 -2 13 C-2 13.66 -2 14.32 -2 15 C-1.34 15 -0.68 15 0 15 C0 10.05 0 5.1 0 0 Z " fill="#E3FAFC" transform="translate(121,88)"/>
<path d="M0 0 C0.99 0 1.98 0 3 0 C3.02703562 2.58340384 3.04685611 5.16652308 3.0625 7.75 C3.07087891 8.47960937 3.07925781 9.20921875 3.08789062 9.9609375 C3.10391684 13.48670558 2.95292713 16.61034916 2 20 C1.34 20 0.68 20 0 20 C0 13.4 0 6.8 0 0 Z " fill="#6190B4" transform="translate(85,84)"/>
<path d="M0 0 C1.8125 1.5 1.8125 1.5 3 3 C3 2.01 3 1.02 3 0 C3.66 0 4.32 0 5 0 C4.67 1.32 4.34 2.64 4 4 C2.783125 3.95875 1.56625 3.9175 0.3125 3.875 C-3.26220969 3.86239079 -5.71598737 4.54043883 -9 6 C-10.32 6 -11.64 6 -13 6 C-12.67 4.68 -12.34 3.36 -12 2 C-11.21625 1.855625 -10.4325 1.71125 -9.625 1.5625 C-1.60335196 -0.15642458 -1.60335196 -0.15642458 0 0 Z " fill="#B0C9D5" transform="translate(119,116)"/>
<path d="M0 0 C0.66 0 1.32 0 2 0 C2.55786268 1.59860649 3.09579568 3.20417905 3.625 4.8125 C3.92664063 5.70582031 4.22828125 6.59914063 4.5390625 7.51953125 C5 10 5 10 3 13 C2.34 12.34 1.68 11.68 1 11 C0.01 11.495 0.01 11.495 -1 12 C-1.02687279 10.18757948 -1.04633715 8.37504767 -1.0625 6.5625 C-1.07410156 5.55316406 -1.08570312 4.54382813 -1.09765625 3.50390625 C-1 1 -1 1 0 0 Z " fill="#F6FDFE" transform="translate(95,87)"/>
<path d="M0 0 C0 0.66 0 1.32 0 2 C-0.99 2 -1.98 2 -3 2 C-3 2.66 -3 3.32 -3 4 C-2.34 4.33 -1.68 4.66 -1 5 C-1.99 5.33 -2.98 5.66 -4 6 C-4.33 7.65 -4.66 9.3 -5 11 C-5.99 10.67 -6.98 10.34 -8 10 C-7.814375 9.071875 -7.62875 8.14375 -7.4375 7.1875 C-6.75876119 3.98656229 -6.75876119 3.98656229 -8 1 C-5.10765685 0.17361624 -3.11257569 0 0 0 Z " fill="#79A1BC" transform="translate(96,105)"/>
<path d="M0 0 C-0.33 4.29 -0.66 8.58 -1 13 C-1.99 13 -2.98 13 -4 13 C-4.2493357 11.39884424 -4.47378648 9.79379841 -4.6875 8.1875 C-4.81511719 7.29417969 -4.94273438 6.40085937 -5.07421875 5.48046875 C-5 3 -5 3 -3.64453125 1.17578125 C-2 0 -2 0 0 0 Z " fill="#5C90AF" transform="translate(105,103)"/>
<path d="M0 0 C0.66 0.33 1.32 0.66 2 1 C1.67 4.96 1.34 8.92 1 13 C0.01 13 -0.98 13 -2 13 C-2.2493357 11.39884424 -2.47378648 9.79379841 -2.6875 8.1875 C-2.81511719 7.29417969 -2.94273438 6.40085937 -3.07421875 5.48046875 C-3 3 -3 3 -1.51953125 1.17578125 C-1.01808594 0.78777344 -0.51664062 0.39976563 0 0 Z " fill="#6C7FA3" transform="translate(78,106)"/>
<path d="M0 0 C-0.33 2.31 -0.66 4.62 -1 7 C-2.65 7 -4.3 7 -6 7 C-6 6.34 -6 5.68 -6 5 C-5.01 5 -4.02 5 -3 5 C-3 4.34 -3 3.68 -3 3 C-4.65 3 -6.3 3 -8 3 C-7.34 2.67 -6.68 2.34 -6 2 C-6 1.34 -6 0.68 -6 0 C-3.50907189 -1.24546405 -2.58919267 -0.7767578 0 0 Z " fill="#D0F6FD" transform="translate(113,84)"/>
<path d="M0 0 C4.95 0 9.9 0 15 0 C15 0.66 15 1.32 15 2 C13.44033408 2.36644578 11.87707349 2.71760862 10.3125 3.0625 C9.44238281 3.25972656 8.57226562 3.45695312 7.67578125 3.66015625 C4.83998724 4.02032279 2.75210018 3.70909969 0 3 C0 2.01 0 1.02 0 0 Z " fill="#5F9DB6" transform="translate(99,97)"/>
<path d="M0 0 C0 1.32 0 2.64 0 4 C-1.4577353 4.335939 -2.91621106 4.66866624 -4.375 5 C-5.59316406 5.2784375 -5.59316406 5.2784375 -6.8359375 5.5625 C-9 6 -9 6 -11 6 C-11 5.01 -11 4.02 -11 3 C-9.35 3 -7.7 3 -6 3 C-6 2.34 -6 1.68 -6 1 C-3.92446352 0.4465236 -2.15634036 0 0 0 Z " fill="#62A5C3" transform="translate(102,76)"/>
<path d="M0 0 C0.33 0 0.66 0 1 0 C1 3.96 1 7.92 1 12 C0.34 12 -0.32 12 -1 12 C-0.67 12.66 -0.34 13.32 0 14 C1.98 14 3.96 14 6 14 C6 14.33 6 14.66 6 15 C3.36 15.66 0.72 16.32 -2 17 C-3.125 12.25 -3.125 12.25 -2 10 C-1.34 10 -0.68 10 0 10 C0 6.7 0 3.4 0 0 Z " fill="#CEE9F8" transform="translate(90,88)"/>
<path d="M0 0 C0.87011719 0.10828125 0.87011719 0.10828125 1.7578125 0.21875 C6.20087574 0.7466387 10.51631578 1.11496626 15 1 C15 1.66 15 2.32 15 3 C10.59085217 4.10228696 6.51617599 4.07654536 2 4 C2 3.34 2 2.68 2 2 C1.34 2 0.68 2 0 2 C0 1.34 0 0.68 0 0 Z " fill="#6AACC6" transform="translate(95,71)"/>
<path d="M0 0 C1.67542976 0.28604898 3.34385343 0.61781233 5 1 C5 3.97 5 6.94 5 10 C4.67 10 4.34 10 4 10 C3.67 7.36 3.34 4.72 3 2 C2.01 2.495 2.01 2.495 1 3 C0.5316735 5.58605332 0.5316735 5.58605332 0.375 8.5625 C0.30023438 9.57441406 0.22546875 10.58632812 0.1484375 11.62890625 C0.09945312 12.41136719 0.05046875 13.19382812 0 14 C-0.33 14 -0.66 14 -1 14 C-1.02685938 11.85423363 -1.04633088 9.70837355 -1.0625 7.5625 C-1.07410156 6.36753906 -1.08570312 5.17257813 -1.09765625 3.94140625 C-1 1 -1 1 0 0 Z " fill="#BAE1F1" transform="translate(94,85)"/>
<path d="M0 0 C1.4540625 0.0309375 1.4540625 0.0309375 2.9375 0.0625 C2.9375 0.7225 2.9375 1.3825 2.9375 2.0625 C1.9475 2.0625 0.9575 2.0625 -0.0625 2.0625 C0.9275 3.7125 1.9175 5.3625 2.9375 7.0625 C0.5625 6.875 0.5625 6.875 -2.0625 6.0625 C-3.375 3.5 -3.375 3.5 -4.0625 1.0625 C-3.0625 0.0625 -3.0625 0.0625 0 0 Z " fill="#58A1BE" transform="translate(107.0625,86.9375)"/>
<path d="M0 0 C0.66 0 1.32 0 2 0 C2.03738281 0.61488281 2.07476562 1.22976562 2.11328125 1.86328125 C2.17902344 2.67152344 2.24476562 3.47976562 2.3125 4.3125 C2.37050781 5.11300781 2.42851563 5.91351563 2.48828125 6.73828125 C3.08206694 9.36272334 3.95780294 10.30820672 6 12 C4.33388095 12.042721 2.66617115 12.04063832 1 12 C0 11 0 11 -0.09765625 8.49609375 C-0.08605469 7.48675781 -0.07445313 6.47742188 -0.0625 5.4375 C-0.05347656 4.42558594 -0.04445313 3.41367188 -0.03515625 2.37109375 C-0.02355469 1.58863281 -0.01195313 0.80617188 0 0 Z " fill="#5093BA" transform="translate(114,101)"/>
<path d="M0 0 C-0.33 1.32 -0.66 2.64 -1 4 C-3.66666667 4 -6.33333333 4 -9 4 C-9 3.01 -9 2.02 -9 1 C-2.25 -1.125 -2.25 -1.125 0 0 Z " fill="#B0C0CE" transform="translate(104,119)"/>
<path d="M0 0 C0.33 0.99 0.66 1.98 1 3 C1.62648438 2.84402344 2.25296875 2.68804687 2.8984375 2.52734375 C3.71570313 2.33269531 4.53296875 2.13804688 5.375 1.9375 C6.59316406 1.64166016 6.59316406 1.64166016 7.8359375 1.33984375 C10 1 10 1 12 2 C9.23949662 4.76050338 6.79944016 4.46674524 3 5 C2.01 5.66 1.02 6.32 0 7 C-0.93423645 3.98968256 -1.04449911 3.13349732 0 0 Z " fill="#D0F4FB" transform="translate(90,79)"/>
<path d="M0 0 C0.625 1.875 0.625 1.875 1 4 C0.34 4.66 -0.32 5.32 -1 6 C-3.125 5.625 -3.125 5.625 -5 5 C-5.33 3.68 -5.66 2.36 -6 1 C-5.01 1 -4.02 1 -3 1 C-3 1.66 -3 2.32 -3 3 C-2.34 3 -1.68 3 -1 3 C-0.67 2.01 -0.34 1.02 0 0 Z " fill="#5B6C92" transform="translate(85,123)"/>
<path d="M0 0 C-0.33 0.721875 -0.66 1.44375 -1 2.1875 C-2.00603529 5.01697427 -2.16977402 7.02895466 -2 10 C-2.66 10 -3.32 10 -4 10 C-4.144375 8.88625 -4.28875 7.7725 -4.4375 6.625 C-4.78372035 3.17857953 -4.78372035 3.17857953 -6 1 C-3.92446352 0.4465236 -2.15634036 0 0 0 Z " fill="#DDF6FB" transform="translate(103,102)"/>
<path d="M0 0 C2.875 -0.125 2.875 -0.125 6 0 C6.66 0.66 7.32 1.32 8 2 C4.62902617 3.49821059 2.79557881 4 -1 4 C-0.67 2.68 -0.34 1.36 0 0 Z " fill="#ACC4C8" transform="translate(107,118)"/>
<path d="M0 0 C0.66 0 1.32 0 2 0 C2 0.66 2 1.32 2 2 C2.99 2 3.98 2 5 2 C4.67 2.99 4.34 3.98 4 5 C3.01 4.67 2.02 4.34 1 4 C1 4.66 1 5.32 1 6 C-0.32 6 -1.64 6 -3 6 C-2.67 5.34 -2.34 4.68 -2 4 C-1.34 4.33 -0.68 4.66 0 5 C0 3.35 0 1.7 0 0 Z " fill="#CAF1FA" transform="translate(95,73)"/>
<path d="M0 0 C2.64 0 5.28 0 8 0 C8 1.65 8 3.3 8 5 C5.69 4.67 3.38 4.34 1 4 C1 3.67 1 3.34 1 3 C2.65 3 4.3 3 6 3 C6 2.34 6 1.68 6 1 C4.02 1 2.04 1 0 1 C0 0.67 0 0.34 0 0 Z " fill="#E3F9FA" transform="translate(104,71)"/>
<path d="M0 0 C2.24606427 1.77444972 2.95081002 2.58352485 3.29296875 5.48046875 C3.25816406 6.37378906 3.22335938 7.26710938 3.1875 8.1875 C3.16042969 9.08855469 3.13335937 9.98960938 3.10546875 10.91796875 C3.07066406 11.60503906 3.03585938 12.29210937 3 13 C2.67 13 2.34 13 2 13 C2 10.03 2 7.06 2 4 C0.68 3.34 -0.64 2.68 -2 2 C-1.34 2 -0.68 2 0 2 C0 1.34 0 0.68 0 0 Z " fill="#B1D9ED" transform="translate(114,97)"/>
<path d="M0 0 C0.33 0 0.66 0 1 0 C1 1.98 1 3.96 1 6 C1.66 6.33 2.32 6.66 3 7 C2.01 8.485 2.01 8.485 1 10 C0.34 10 -0.32 10 -1 10 C-1.33 9.01 -1.66 8.02 -2 7 C-1.34 7 -0.68 7 0 7 C0 4.69 0 2.38 0 0 Z " fill="#B9C6DD" transform="translate(83,116)"/>
<path d="M0 0 C-1.25 1.5625 -1.25 1.5625 -3 3 C-5.1875 2.6875 -5.1875 2.6875 -7 2 C-7 1.34 -7 0.68 -7 0 C-2.25 -1.125 -2.25 -1.125 0 0 Z " fill="#D7F1FA" transform="translate(122,113)"/>
<path d="M0 0 C1.32 0 2.64 0 4 0 C3.67 1.65 3.34 3.3 3 5 C2.01 5 1.02 5 0 5 C0 3.35 0 1.7 0 0 Z " fill="#F6FEFE" transform="translate(117,104)"/>
</svg>
